<?xml version="1.0" standalone="no"?>
<!DOCTYPE svg PUBLIC "-//W3C//DTD SVG 20010904//EN"
 "http://www.w3.org/TR/2001/REC-SVG-20010904/DTD/svg10.dtd">
<svg version="1.0" xmlns="http://www.w3.org/2000/svg"
 width="512.000000pt" height="512.000000pt" viewBox="0 0 512.000000 512.000000"
 preserveAspectRatio="xMidYMid meet">
<metadata>
Created by potrace 1.14, written by Peter Selinger 2001-2017
</metadata>
<g transform="translate(0.000000,512.000000) scale(0.100000,-0.100000)"
fill="#000000" stroke="none">
<path d="M2419 5113 c-1 -5 -1 -11 -1 -14 2 -11 -102 -17 -122 -7 -14 8 -17 7
-11 -3 6 -8 4 -11 -7 -6 -9 3 -21 0 -28 -6 -10 -10 -12 -8 -6 8 6 19 5 19 -8
3 -13 -18 -32 -26 -22 -10 3 5 -1 9 -9 9 -8 0 -12 -4 -9 -8 6 -11 -82 -23 -97
-13 -8 4 -10 3 -5 -4 7 -12 4 -13 -46 -16 -14 0 -30 -4 -34 -8 -13 -13 -27 -9
-18 5 5 7 1 5 -8 -5 -20 -23 -28 -24 -39 -6 -7 10 -9 8 -10 -7 0 -11 -3 -14
-6 -7 -2 6 -9 12 -14 12 -6 0 -8 -4 -5 -8 3 -4 -8 -13 -25 -19 -16 -6 -27 -8
-24 -3 3 4 -2 10 -10 13 -9 4 -12 1 -9 -7 6 -15 -40 -31 -58 -20 -7 4 -8 3 -4
-4 4 -7 2 -12 -3 -12 -18 0 -19 0 -55 -15 -43 -18 -49 -19 -41 -2 4 6 -2 3
-12 -9 -24 -28 -111 -63 -146 -59 -15 2 -25 -1 -21 -6 3 -5 2 -14 -2 -21 -5
-7 -12 -5 -22 8 -12 15 -13 15 -9 2 3 -9 -1 -22 -9 -28 -8 -7 -14 -9 -14 -5 0
4 -10 1 -23 -8 -12 -8 -35 -13 -49 -12 -20 2 -25 -1 -21 -12 7 -17 -16 -35
-32 -25 -16 10 -36 11 -29 1 3 -5 10 -7 15 -4 5 4 9 2 9 -3 0 -14 -78 -54 -85
-42 -4 6 -13 5 -25 -2 -10 -7 -16 -16 -13 -21 3 -4 11 0 19 10 7 10 14 13 14
7 0 -6 -7 -17 -15 -24 -8 -7 -15 -9 -15 -4 0 5 -5 1 -11 -8 -5 -10 -16 -18
-24 -18 -9 0 -12 6 -9 18 5 14 4 14 -4 2 -6 -8 -9 -17 -6 -21 2 -4 -12 -17
-31 -30 -19 -13 -35 -27 -35 -31 0 -5 -9 -8 -19 -8 -11 0 -23 -5 -27 -12 -5
-7 -3 -8 6 -3 9 6 11 4 6 -4 -5 -7 -14 -10 -22 -7 -8 3 -14 -1 -14 -11 0 -9
-2 -14 -5 -11 -3 3 -24 -12 -47 -33 -42 -38 -63 -45 -37 -12 13 16 12 17 -3 4
-10 -7 -18 -19 -18 -27 0 -7 -14 -25 -31 -41 -16 -15 -46 -43 -64 -61 -20 -19
-40 -30 -46 -26 -8 4 -9 3 -5 -5 5 -7 -12 -32 -42 -64 -58 -61 -88 -94 -122
-136 -24 -29 -49 -43 -34 -19 4 6 3 8 -4 5 -5 -4 -8 -15 -5 -25 2 -10 -5 -26
-18 -37 -20 -18 -22 -18 -16 -2 9 24 0 21 -14 -4 -8 -15 -8 -19 0 -15 6 4 11
0 11 -9 0 -11 -5 -15 -16 -11 -8 3 -13 2 -10 -3 3 -4 -2 -17 -10 -27 -9 -10
-12 -13 -8 -5 5 10 3 12 -5 7 -7 -5 -10 -14 -7 -21 2 -7 -6 -25 -19 -39 -12
-13 -20 -28 -16 -32 3 -4 -3 -4 -13 0 -15 5 -17 4 -8 -7 13 -16 -13 -61 -29
-51 -5 3 -9 2 -8 -3 4 -24 -3 -43 -15 -43 -8 0 -18 -4 -21 -10 -3 -6 1 -7 10
-4 13 5 13 2 -2 -24 -10 -17 -21 -28 -25 -26 -3 2 -9 0 -13 -6 -3 -5 -2 -10 4
-10 17 0 -10 -50 -28 -51 -10 0 -12 -2 -3 -6 6 -2 12 -9 12 -15 0 -6 -7 -8
-15 -4 -8 3 -14 2 -13 -2 5 -17 -14 -82 -23 -82 -6 0 -7 5 -3 12 4 7 3 8 -5 4
-9 -6 -9 -11 -1 -21 8 -9 8 -15 0 -20 -5 -3 -10 -1 -10 6 0 7 -3 9 -6 6 -4 -4
-2 -13 5 -20 9 -11 8 -17 -2 -26 -8 -6 -17 -9 -21 -6 -3 3 -2 0 3 -6 11 -14 3
-41 -10 -33 -5 3 -6 -2 -3 -11 4 -10 -3 -27 -17 -43 -13 -14 -16 -20 -6 -13
10 8 17 9 17 3 0 -6 -5 -14 -10 -17 -6 -3 -10 -14 -10 -24 0 -10 -9 -29 -20
-43 -14 -18 -16 -28 -8 -36 8 -8 7 -13 -6 -18 -14 -5 -15 -9 -4 -15 10 -7 8
-12 -9 -24 -13 -9 -23 -21 -23 -27 0 -7 6 -3 14 8 14 18 15 18 13 -3 -1 -13
-5 -23 -9 -23 -4 0 -7 -3 -7 -7 4 -26 -3 -63 -12 -63 -5 0 -7 5 -3 12 4 7 3 8
-4 4 -8 -5 -8 -13 0 -32 10 -20 8 -27 -8 -40 -10 -8 -14 -13 -8 -10 7 3 11 -4
11 -19 0 -14 -4 -22 -10 -18 -6 4 -7 -4 -3 -21 4 -17 3 -25 -3 -22 -5 4 -13 1
-17 -5 -4 -7 -3 -9 3 -6 6 4 13 0 17 -8 3 -9 0 -15 -9 -15 -8 0 -15 -5 -15
-11 0 -5 5 -7 10 -4 14 9 12 -18 -2 -34 -8 -9 -9 -12 -1 -7 7 4 10 0 8 -11 -2
-10 -4 -20 -4 -23 -1 -3 -6 2 -12 10 -9 12 -9 11 -3 -5 11 -29 5 -137 -9 -154
-9 -12 -9 -13 0 -7 8 4 13 1 13 -8 0 -9 -5 -15 -11 -13 -6 1 -13 -4 -15 -11
-1 -7 0 -8 3 -2 2 5 9 7 14 4 6 -3 5 -12 -3 -22 -11 -13 -11 -14 1 -8 9 6 12
5 9 -5 -3 -8 -11 -13 -17 -11 -7 1 -10 -2 -6 -8 3 -6 11 -8 16 -4 11 7 8 -34
-4 -53 -5 -8 -4 -13 2 -13 15 0 14 -27 -1 -33 -10 -4 -10 -6 0 -6 6 -1 12 -10
12 -21 0 -11 -6 -20 -12 -20 -10 0 -10 -2 -1 -8 7 -5 13 -33 15 -67 1 -33 4
-64 7 -70 8 -15 8 -45 0 -45 -4 0 -10 6 -12 13 -4 9 -6 9 -6 -1 -1 -7 6 -15
14 -18 13 -5 13 -9 3 -22 -8 -9 -8 -13 -2 -9 14 8 27 -45 17 -70 -4 -9 -2 -14
3 -10 6 3 11 -10 12 -30 2 -20 7 -43 11 -52 6 -10 4 -19 -7 -28 -16 -12 -16
-13 1 -7 12 5 17 1 18 -15 1 -12 2 -24 4 -28 7 -28 18 -89 16 -92 -2 -2 3 -8
11 -12 10 -7 9 -9 -4 -9 -10 0 -18 -4 -18 -10 0 -5 7 -7 15 -4 18 7 20 -7 3
-25 -11 -10 -9 -11 7 -5 18 7 19 6 6 -9 -12 -15 -12 -17 3 -11 10 4 16 1 17
-7 1 -28 7 -49 22 -79 16 -31 11 -39 -13 -18 -9 8 -8 5 1 -7 9 -11 14 -27 11
-35 -4 -12 -3 -13 10 -2 13 10 17 10 22 -4 9 -24 6 -42 -4 -19 -6 16 -8 14 -7
-13 0 -18 3 -29 6 -24 3 6 11 4 19 -4 12 -13 8 -18 -11 -15 -4 1 -2 -9 5 -21
7 -13 11 -27 10 -31 -1 -5 2 -6 8 -2 8 5 7 11 -1 21 -6 8 -9 17 -6 21 4 3 14
-11 23 -33 9 -21 21 -47 26 -58 7 -12 7 -16 0 -12 -6 3 -14 1 -18 -5 -4 -7 -3
-9 2 -6 15 9 27 -4 58 -63 16 -30 38 -71 50 -90 11 -19 21 -41 23 -49 1 -8 7
-17 14 -21 6 -4 8 -13 5 -19 -5 -7 -2 -10 6 -9 8 2 13 -7 13 -24 -1 -22 2 -25
14 -15 12 10 14 8 9 -10 -5 -17 -2 -20 11 -15 14 5 14 4 2 -11 -12 -15 -12
-17 2 -12 8 4 18 1 23 -6 4 -8 3 -10 -4 -5 -7 4 -12 2 -12 -3 0 -6 5 -11 10
-11 20 0 59 -54 49 -67 -7 -7 -6 -14 2 -19 8 -4 9 -3 5 4 -11 18 10 14 25 -4
9 -11 9 -18 2 -22 -7 -5 -6 -12 5 -22 14 -13 15 -12 9 3 -3 9 -2 17 3 17 10 0
14 -14 10 -39 -1 -9 4 -12 14 -8 9 4 16 2 16 -3 0 -6 11 -20 25 -32 25 -22 35
-45 13 -32 -7 4 -8 3 -4 -5 4 -7 12 -11 18 -9 12 4 138 -124 138 -140 0 -7 3
-11 8 -11 19 3 32 -2 32 -14 0 -7 10 -17 23 -22 12 -6 21 -17 21 -26 -1 -11 5
-15 17 -12 11 3 19 0 19 -6 0 -7 -5 -9 -12 -5 -9 5 -9 2 1 -9 7 -9 19 -17 25
-17 6 0 4 5 -4 10 -8 5 -10 10 -4 10 14 0 37 -27 40 -47 2 -8 6 -18 10 -21 4
-4 4 1 1 11 -7 20 8 23 20 3 4 -7 23 -21 42 -31 18 -9 35 -24 38 -34 2 -9 14
-23 26 -30 l22 -14 -20 24 c-15 17 -9 14 21 -9 23 -18 47 -32 52 -32 6 0 14
-4 17 -10 4 -6 -1 -7 -12 -4 -14 5 -15 4 -4 -4 8 -6 20 -8 28 -5 7 3 13 -2 13
-12 0 -9 4 -14 10 -10 10 6 50 -13 62 -30 4 -5 4 -13 1 -19 -3 -5 -1 -6 5 -2
5 3 12 3 15 -1 2 -5 2 -2 1 5 -2 6 1 12 6 12 10 0 14 -15 11 -34 -1 -5 5 -4
13 3 13 11 17 11 22 -2 3 -9 11 -14 19 -11 7 3 15 -4 18 -16 3 -12 10 -19 15
-16 14 9 83 -14 89 -30 3 -8 9 -14 15 -14 5 0 6 5 3 11 -4 6 2 5 13 -2 12 -7
18 -18 15 -24 -4 -5 -3 -7 2 -3 4 4 15 2 23 -5 13 -9 14 -9 8 0 -5 9 -2 11 8
7 9 -3 14 -9 11 -14 -2 -4 8 -12 23 -19 24 -10 25 -10 10 2 -27 21 -21 28 10
11 15 -7 33 -14 41 -14 8 0 11 -6 7 -16 -5 -14 -4 -15 9 -4 12 10 18 8 33 -10
15 -18 21 -20 27 -10 5 8 4 11 -3 6 -6 -3 -13 -2 -16 3 -4 5 1 8 10 7 8 -1 19
-8 24 -16 4 -7 15 -10 25 -6 13 5 16 2 11 -11 -6 -15 -5 -16 5 -5 17 16 32 16
23 -1 -6 -8 -3 -8 9 1 14 12 19 12 31 -1 8 -8 12 -18 8 -23 -4 -5 2 -2 12 6
25 19 25 19 43 -10 8 -14 12 -17 9 -7 -5 14 -1 16 22 11 15 -4 29 -11 30 -16
2 -4 8 -8 13 -8 6 0 7 6 3 13 -6 9 -4 9 8 -1 8 -7 23 -10 32 -6 9 3 16 2 16
-4 0 -6 -6 -12 -12 -15 -7 -3 -3 -4 9 -4 12 1 19 5 17 9 -3 4 4 8 15 8 12 0
21 -3 21 -7 0 -5 12 -8 28 -9 15 0 54 -4 87 -7 33 -4 98 -9 145 -13 47 -3 91
-11 99 -17 11 -9 13 -9 8 0 -11 18 93 14 115 -4 12 -11 18 -12 24 -2 4 7 3 10
-4 5 -6 -3 -13 -2 -17 4 -4 6 12 10 44 10 30 0 51 -5 54 -12 4 -9 6 -7 6 3 1
19 43 18 69 -3 16 -12 16 -11 2 6 -13 17 -13 19 0 14 8 -3 23 -1 33 4 13 7 17
5 18 -9 0 -15 2 -15 7 -3 8 17 32 25 32 10 0 -6 5 -10 11 -10 5 0 7 5 4 10 -6
9 -1 11 38 14 6 1 11 -5 9 -12 -1 -8 2 -11 8 -7 6 3 8 11 5 16 -4 5 -2 9 4 9
5 0 13 -4 16 -10 3 -5 12 -10 18 -9 9 0 9 2 0 6 -20 7 -15 19 7 20 11 1 18 -2
15 -7 -3 -5 7 -2 22 5 43 21 151 43 161 33 8 -8 62 6 62 17 0 2 -12 0 -26 -6
-15 -5 -29 -7 -32 -5 -6 6 13 14 48 20 14 2 52 14 85 26 33 12 68 21 77 21 10
0 20 5 24 10 4 6 11 6 20 -2 12 -10 13 -9 8 6 -5 13 -3 16 7 13 8 -3 20 2 28
10 8 7 25 12 37 9 13 -2 21 -1 19 3 -3 5 2 11 11 14 22 9 26 8 18 -6 -4 -7 -3
-8 5 -4 6 4 9 11 6 16 -5 8 33 26 48 22 4 -1 7 3 7 9 0 6 9 9 19 6 14 -3 18
-1 14 9 -3 8 -1 14 5 14 6 0 13 -6 15 -12 4 -9 6 -7 6 3 1 9 19 24 41 34 22
10 40 22 40 27 0 4 6 8 13 8 7 0 29 12 50 26 21 14 45 23 53 20 8 -3 13 0 11
7 -1 7 6 11 15 11 10 -1 14 4 11 12 -3 9 1 14 12 14 10 0 14 -5 9 -12 -4 -8
-3 -10 2 -5 5 5 9 14 9 20 0 7 12 11 25 9 19 -1 22 0 10 8 -13 8 -13 11 -1 22
8 7 11 8 8 3 -3 -6 4 -12 16 -12 16 -2 18 0 7 7 -11 7 -9 12 11 29 13 11 31
18 39 15 8 -3 12 -2 8 1 -3 4 2 14 11 23 80 76 82 77 92 62 9 -13 10 -13 6 1
-3 9 9 29 28 48 25 24 33 28 31 14 -2 -10 -1 -12 1 -5 3 7 8 10 13 7 4 -3 6 4
3 15 -3 12 0 20 6 20 7 0 9 -5 5 -12 -4 -7 -3 -8 4 -4 6 4 9 13 5 21 -3 10 1
15 12 15 10 0 14 -5 9 -12 -4 -7 -3 -10 1 -5 5 4 10 17 12 28 2 11 12 30 24
42 19 21 20 21 14 2 -3 -12 0 -9 7 5 14 28 29 41 39 34 4 -2 6 4 5 14 -1 12 6
16 24 15 14 -1 19 1 13 3 -7 3 -13 12 -13 19 0 14 27 28 39 20 4 -2 8 2 8 10
0 8 -4 12 -9 9 -4 -3 -5 2 -2 10 6 17 25 17 36 1 5 -6 8 -6 8 2 0 6 -5 15 -11
18 -7 5 -2 16 12 31 13 13 25 20 29 15 3 -6 12 0 19 12 13 20 13 21 -2 8 -10
-7 -17 -9 -17 -3 0 5 7 15 16 23 13 10 17 10 25 -2 5 -9 9 -10 9 -2 0 6 -5 15
-10 18 -7 4 -7 13 0 26 15 28 33 25 20 -4 -11 -21 -10 -21 4 -3 10 13 12 23 6
31 -6 7 -5 16 2 23 17 17 33 15 18 -3 -7 -9 -8 -15 -2 -15 16 0 22 26 9 40
-10 10 -8 12 6 7 10 -4 16 -3 12 2 -3 5 1 12 7 14 10 4 9 6 -1 6 -11 1 -10 5
4 21 10 11 23 17 29 13 7 -5 7 -2 -1 8 -9 11 -8 20 7 39 11 14 20 31 20 38 0
9 7 11 23 7 15 -4 18 -3 8 3 -11 8 -11 10 0 15 9 4 10 6 2 6 -8 1 -7 10 5 31
11 19 22 28 32 24 12 -4 13 -3 3 7 -19 19 -16 34 4 18 15 -13 15 -12 4 9 -11
20 -9 23 14 32 15 6 24 14 21 19 -4 5 -1 12 4 14 6 3 5 4 -2 3 -7 -2 -12 -9
-11 -15 2 -6 -2 -11 -7 -11 -13 0 -13 0 10 48 15 31 25 40 38 36 10 -4 13 -2
7 3 -14 10 -12 31 5 68 7 17 14 37 16 45 2 8 13 24 26 34 17 15 19 18 5 13
-13 -5 -17 -3 -14 5 2 7 13 12 23 10 18 -2 18 -2 1 8 -9 6 -15 16 -12 21 4 5
10 7 15 4 5 -3 12 0 16 6 4 8 3 9 -4 5 -17 -10 -15 13 8 78 17 49 25 84 29
118 1 4 9 5 19 1 14 -5 14 -3 -3 11 -19 16 -19 17 -1 12 14 -5 16 -3 9 6 -10
15 -10 21 0 61 4 15 12 25 16 22 10 -6 9 14 -1 30 -10 16 3 66 19 72 11 4 12
8 3 13 -7 5 -9 16 -5 29 3 12 11 19 16 16 5 -4 9 -2 9 4 0 5 -8 11 -17 13 -15
3 -15 4 1 20 10 10 14 18 9 18 -5 0 -9 9 -10 20 -1 12 4 20 15 20 13 0 13 2
-4 16 -10 8 -14 13 -8 10 7 -3 15 1 18 10 3 8 2 12 -4 9 -6 -3 -10 4 -10 17 0
19 2 20 10 8 11 -15 10 -5 -4 58 -4 18 -2 22 9 18 9 -3 12 0 8 9 -3 8 -9 13
-13 10 -14 -9 -5 40 10 52 8 6 12 15 7 19 -4 4 -7 2 -7 -4 0 -7 -4 -12 -8 -12
-5 0 -9 7 -9 15 0 8 4 15 9 15 4 0 8 9 8 21 0 11 -3 18 -8 15 -4 -2 -8 9 -8
25 -1 16 1 27 5 25 4 -3 7 13 6 34 0 21 -3 36 -6 34 -4 -2 -10 3 -13 11 -3 9
1 18 9 22 13 5 13 7 -2 18 -14 10 -15 16 -5 27 8 10 8 18 1 25 -15 15 -19 66
-6 81 8 10 7 12 -4 10 -10 -2 -14 8 -13 40 1 23 -3 42 -8 42 -4 0 -8 12 -8 26
0 17 4 23 13 19 6 -4 3 1 -7 9 -11 9 -16 16 -12 16 5 0 4 6 -2 13 -5 6 -12 26
-15 42 -3 17 -10 44 -15 60 -5 17 -7 36 -4 44 2 7 -1 17 -7 21 -7 4 -13 18
-15 31 -3 23 -13 53 -24 73 -3 5 1 6 9 2 8 -4 6 -1 -3 7 -21 17 -23 28 -5 23
6 -1 9 -1 4 1 -4 3 -4 10 -1 15 4 6 3 9 -2 6 -5 -3 -15 0 -22 8 -7 8 -10 14
-6 14 3 0 1 7 -6 15 -7 8 -10 15 -7 15 3 0 0 12 -8 26 -7 15 -11 33 -8 42 4
10 2 13 -5 8 -11 -7 -17 6 -13 28 1 5 -2 12 -7 15 -16 11 -59 106 -57 128 1
19 -1 21 -14 11 -9 -7 -13 -8 -8 -3 4 4 0 17 -10 27 -9 10 -13 21 -10 25 4 3
-1 12 -11 20 -9 8 -11 12 -5 8 9 -4 11 -1 7 9 -3 9 -10 14 -14 11 -4 -3 -11 2
-14 11 -9 23 -8 24 10 17 11 -4 8 3 -7 18 -27 28 -39 29 -18 2 13 -16 12 -17
-3 -4 -21 16 -23 37 -5 45 7 3 5 4 -5 3 -18 -2 -128 143 -128 170 0 9 -3 14
-6 10 -8 -7 -54 46 -54 63 0 6 -6 8 -12 4 -7 -4 -10 -4 -6 0 4 5 -5 19 -20 33
-15 13 -21 22 -14 18 6 -3 12 -1 12 4 0 6 -6 11 -13 11 -19 0 -90 78 -82 90 4
6 3 10 -2 9 -20 -4 -27 2 -13 12 12 9 12 10 -3 5 -10 -3 -25 0 -33 8 -20 21
-17 28 6 16 29 -15 25 -5 -6 15 -15 9 -23 12 -20 6 4 -6 3 -11 -3 -11 -5 0
-13 9 -16 20 -4 11 -11 17 -17 14 -6 -4 -8 2 -4 17 3 13 3 18 0 12 -8 -17 -28
-17 -21 0 3 7 -7 24 -21 38 -23 22 -24 22 -14 2 7 -12 17 -24 24 -26 8 -4 9
-6 2 -6 -7 -1 -34 20 -60 46 -27 25 -42 41 -32 34 13 -9 18 -9 24 1 4 7 3 10
-1 5 -5 -4 -17 1 -28 10 -11 10 -17 12 -13 6 13 -22 -12 -14 -28 9 -9 12 -16
19 -16 15 0 -5 -7 -2 -15 7 -8 8 -15 19 -15 24 0 5 -7 16 -17 23 -15 13 -15
12 -3 -11 l13 -25 -24 20 c-13 11 -26 21 -29 23 -2 2 2 7 10 12 11 7 7 9 -14
7 -19 -1 -31 3 -33 13 -4 13 -3 13 6 0 6 -8 11 -10 11 -4 0 19 -13 24 -28 11
-13 -10 -15 -9 -9 6 4 10 3 16 -2 12 -14 -8 -41 5 -41 21 0 8 -5 14 -11 14 -5
0 -7 -5 -4 -11 4 -6 -2 -5 -13 2 -12 7 -18 17 -15 22 3 4 -1 7 -8 6 -19 -3
-49 11 -49 23 0 5 5 6 12 2 7 -4 8 -3 4 5 -6 9 -11 9 -24 -1 -13 -11 -14 -11
-8 0 5 9 3 13 -5 12 -20 -3 -59 11 -59 21 0 5 8 6 18 3 14 -5 14 -4 2 4 -8 6
-18 8 -22 6 -14 -9 -99 30 -94 42 3 7 -3 10 -15 7 -20 -5 -52 14 -45 26 3 4
-5 8 -17 8 -18 2 -19 0 -7 -8 12 -9 12 -10 -3 -5 -10 3 -21 6 -23 6 -3 0 -2 5
2 12 5 7 3 8 -6 3 -8 -5 -19 1 -32 16 -16 20 -17 21 -12 4 5 -19 5 -19 -9 -2
-16 19 -32 24 -21 5 5 -7 3 -8 -7 -2 -8 4 -20 9 -26 10 -7 1 -20 9 -29 18 -17
18 -28 21 -19 6 4 -7 -3 -7 -20 0 -14 5 -36 12 -48 15 -73 16 -150 43 -158 56
-7 12 -9 11 -9 -3 0 -11 -5 -15 -15 -12 -8 4 -12 10 -9 15 3 5 1 9 -5 9 -5 0
-13 -5 -16 -10 -4 -6 -13 -7 -23 -1 -13 7 -60 16 -101 21 -2 0 2 6 8 13 8 10
7 14 -4 14 -7 0 -13 -5 -12 -11 2 -13 -57 -9 -61 5 -2 5 -11 9 -20 9 -15 0
-15 -2 -2 -10 12 -8 10 -9 -8 -7 -12 2 -28 11 -35 20 -9 13 -16 14 -27 6 -13
-9 -12 -10 3 -5 9 3 17 1 17 -4 0 -10 -61 -7 -79 4 -5 3 -12 0 -14 -6 -3 -7
-6 -4 -6 6 -1 20 -1 20 -17 0 -15 -18 -15 -18 -10 0 5 14 3 16 -6 10 -21 -16
-72 -18 -63 -3 6 9 4 10 -6 3 -19 -12 -62 -12 -71 1 -5 6 -8 5 -8 -2 0 -7 -9
-13 -21 -13 -13 0 -18 4 -13 13 6 9 4 9 -8 -1 -17 -14 -39 -13 -50 3 -5 6 -8
5 -8 -3 0 -7 -5 -10 -10 -7 -6 4 -8 11 -5 16 4 5 4 9 1 9 -3 0 -7 -3 -7 -7z
m-1029 -307 c0 -3 -4 -8 -10 -11 -5 -3 -10 -1 -10 4 0 6 5 11 10 11 6 0 10 -2
10 -4z m-1250 -1506 c0 -5 -5 -10 -11 -10 -5 0 -7 5 -4 10 3 6 8 10 11 10 2 0
4 -4 4 -10z"/>
<path d="M2747 5109 c7 -7 15 -10 18 -7 3 3 -2 9 -12 12 -14 6 -15 5 -6 -5z"/>
<path d="M2316 5098 c3 -4 11 -5 19 -1 21 7 19 12 -4 10 -11 0 -18 -5 -15 -9z"/>
<path d="M3010 5070 c-9 -6 -10 -10 -3 -10 6 0 15 5 18 10 8 12 4 12 -15 0z"/>
<path d="M3157 5039 c7 -7 15 -10 18 -7 3 3 -2 9 -12 12 -14 6 -15 5 -6 -5z"/>
<path d="M3237 5019 c7 -7 15 -10 18 -7 3 3 -2 9 -12 12 -14 6 -15 5 -6 -5z"/>
<path d="M3276 4998 c3 -5 10 -6 15 -3 13 9 11 12 -6 12 -8 0 -12 -4 -9 -9z"/>
<path d="M3406 4958 c3 -5 10 -6 15 -3 13 9 11 12 -6 12 -8 0 -12 -4 -9 -9z"/>
<path d="M1596 4918 c3 -4 11 -5 19 -1 21 7 19 12 -4 10 -11 0 -18 -5 -15 -9z"/>
<path d="M1570 4910 c0 -5 5 -10 11 -10 5 0 7 5 4 10 -3 6 -8 10 -11 10 -2 0
-4 -4 -4 -10z"/>
<path d="M3655 4860 c3 -5 8 -10 11 -10 2 0 4 5 4 10 0 6 -5 10 -11 10 -5 0
-7 -4 -4 -10z"/>
<path d="M1438 4853 c7 -3 16 -2 19 1 4 3 -2 6 -13 5 -11 0 -14 -3 -6 -6z"/>
<path d="M3680 4846 c0 -2 7 -7 16 -10 8 -3 12 -2 9 4 -6 10 -25 14 -25 6z"/>
<path d="M1266 4758 c3 -4 0 -8 -7 -8 -7 0 -10 -2 -7 -5 7 -7 38 5 38 14 0 4
-7 8 -15 8 -8 0 -12 -4 -9 -9z"/>
<path d="M1080 4640 c-8 -5 -10 -10 -5 -10 6 0 17 5 25 10 8 5 11 10 5 10 -5
0 -17 -5 -25 -10z"/>
<path d="M1050 4620 c0 -5 5 -10 11 -10 5 0 7 5 4 10 -3 6 -8 10 -11 10 -2 0
-4 -4 -4 -10z"/>
<path d="M4190 4510 c0 -5 5 -10 11 -10 5 0 7 5 4 10 -3 6 -8 10 -11 10 -2 0
-4 -4 -4 -10z"/>
<path d="M875 4479 c-4 -6 -5 -12 -2 -15 2 -3 7 2 10 11 7 17 1 20 -8 4z"/>
<path d="M841 4451 c-8 -5 -9 -11 -3 -15 5 -3 12 1 16 9 6 17 6 18 -13 6z"/>
<path d="M805 4420 c-3 -6 1 -7 9 -4 18 7 21 14 7 14 -6 0 -13 -4 -16 -10z"/>
<path d="M774 4384 c-18 -14 -18 -15 4 -4 12 6 22 13 22 15 0 8 -5 6 -26 -11z"/>
<path d="M730 4340 c0 -5 5 -10 11 -10 5 0 7 5 4 10 -3 6 -8 10 -11 10 -2 0
-4 -4 -4 -10z"/>
<path d="M696 4299 c2 -4 -2 -10 -8 -12 -8 -4 -9 -6 -2 -6 6 -1 17 5 23 12 8
10 7 14 -4 14 -8 0 -12 -4 -9 -8z"/>
<path d="M4430 4279 c0 -5 5 -7 10 -4 6 3 10 8 10 11 0 2 -4 4 -10 4 -5 0 -10
-5 -10 -11z"/>
<path d="M644 4248 l-19 -23 25 20 c14 11 27 21 29 22 2 2 0 3 -6 3 -5 0 -18
-10 -29 -22z"/>
<path d="M4501 4204 c0 -11 3 -14 6 -6 3 7 2 16 -1 19 -3 4 -6 -2 -5 -13z"/>
<path d="M590 4179 c0 -5 5 -7 10 -4 6 3 10 8 10 11 0 2 -4 4 -10 4 -5 0 -10
-5 -10 -11z"/>
<path d="M4552 4136 c7 -8 15 -12 17 -11 5 6 -10 25 -20 25 -5 0 -4 -6 3 -14z"/>
<path d="M4603 4075 c0 -8 4 -12 9 -9 5 3 6 10 3 15 -9 13 -12 11 -12 -6z"/>
<path d="M4647 4023 c-9 -8 12 -33 27 -33 6 0 3 5 -7 11 -9 6 -15 14 -12 20 7
10 2 12 -8 2z"/>
<path d="M4676 3967 c3 -10 9 -15 12 -12 3 3 0 11 -7 18 -10 9 -11 8 -5 -6z"/>
<path d="M4795 3771 c-6 -11 13 -26 22 -17 4 3 1 6 -6 6 -7 0 -9 5 -6 10 3 6
4 10 1 10 -3 0 -7 -4 -11 -9z"/>
<path d="M4870 3620 c0 -5 5 -10 11 -10 5 0 7 5 4 10 -3 6 -8 10 -11 10 -2 0
-4 -4 -4 -10z"/>
<path d="M4925 3500 c-3 -5 -1 -10 4 -10 6 0 11 5 11 10 0 6 -2 10 -4 10 -3 0
-8 -4 -11 -10z"/>
<path d="M4946 3457 c3 -10 9 -15 12 -12 3 3 0 11 -7 18 -10 9 -11 8 -5 -6z"/>
<path d="M5015 3220 c3 -5 8 -10 11 -10 2 0 4 5 4 10 0 6 -5 10 -11 10 -5 0
-7 -4 -4 -10z"/>
<path d="M35 2180 c-3 -5 -1 -10 4 -10 6 0 11 5 11 10 0 6 -2 10 -4 10 -3 0
-8 -4 -11 -10z"/>
<path d="M5071 2154 c0 -11 3 -14 6 -6 3 7 2 16 -1 19 -3 4 -6 -2 -5 -13z"/>
<path d="M40 2116 c0 -8 4 -17 9 -20 5 -4 7 3 4 14 -6 23 -13 26 -13 6z"/>
<path d="M50 2060 c0 -5 5 -10 11 -10 5 0 7 5 4 10 -3 6 -8 10 -11 10 -2 0 -4
-4 -4 -10z"/>
<path d="M5046 2034 c-5 -14 -4 -15 9 -4 17 14 19 20 6 20 -5 0 -12 -7 -15
-16z"/>
<path d="M86 1937 c3 -10 9 -15 12 -12 3 3 0 11 -7 18 -10 9 -11 8 -5 -6z"/>
<path d="M5020 1919 c0 -5 5 -7 10 -4 6 3 10 8 10 11 0 2 -4 4 -10 4 -5 0 -10
-5 -10 -11z"/>
<path d="M5016 1873 c-6 -14 -5 -15 5 -6 7 7 10 15 7 18 -3 3 -9 -2 -12 -12z"/>
<path d="M4993 1813 c-3 -10 -8 -22 -11 -27 -3 -5 0 -6 5 -3 11 7 25 47 17 47
-3 0 -7 -8 -11 -17z"/>
<path d="M130 1780 c0 -5 5 -10 11 -10 5 0 7 5 4 10 -3 6 -8 10 -11 10 -2 0
-4 -4 -4 -10z"/>
<path d="M140 1740 c0 -5 5 -10 11 -10 5 0 7 5 4 10 -3 6 -8 10 -11 10 -2 0
-4 -4 -4 -10z"/>
<path d="M4945 1669 c-4 -6 -5 -12 -2 -15 2 -3 7 2 10 11 7 17 1 20 -8 4z"/>
<path d="M4916 1595 c-9 -26 -7 -32 5 -12 6 10 9 21 6 23 -2 3 -7 -2 -11 -11z"/>
<path d="M235 1500 c3 -5 8 -10 11 -10 2 0 4 5 4 10 0 6 -5 10 -11 10 -5 0 -7
-4 -4 -10z"/>
<path d="M295 1386 c10 -14 19 -26 22 -26 7 0 -17 39 -28 46 -6 3 -3 -5 6 -20z"/>
<path d="M351 1284 c0 -11 3 -14 6 -6 3 7 2 16 -1 19 -3 4 -6 -2 -5 -13z"/>
<path d="M4730 1240 c0 -5 5 -10 11 -10 5 0 7 5 4 10 -3 6 -8 10 -11 10 -2 0
-4 -4 -4 -10z"/>
<path d="M686 827 c3 -10 9 -15 12 -12 3 3 0 11 -7 18 -10 9 -11 8 -5 -6z"/>
<path d="M721 793 c7 -12 15 -20 18 -17 3 2 -3 12 -13 22 -17 16 -18 16 -5 -5z"/>
<path d="M750 761 c0 -6 4 -13 10 -16 6 -3 7 1 4 9 -7 18 -14 21 -14 7z"/>
<path d="M4185 609 c-4 -6 -5 -12 -2 -15 2 -3 7 2 10 11 7 17 1 20 -8 4z"/>
<path d="M4152 574 c-7 -8 -8 -14 -3 -14 10 0 25 19 20 25 -2 1 -10 -3 -17
-11z"/>
<path d="M1055 500 c3 -5 11 -10 16 -10 6 0 7 5 4 10 -3 6 -11 10 -16 10 -6 0
-7 -4 -4 -10z"/>
<path d="M3830 349 c0 -5 5 -7 10 -4 6 3 10 8 10 11 0 2 -4 4 -10 4 -5 0 -10
-5 -10 -11z"/>
<path d="M3735 300 c-3 -6 1 -7 9 -4 18 7 21 14 7 14 -6 0 -13 -4 -16 -10z"/>
<path d="M1480 256 c0 -2 8 -10 18 -17 15 -13 16 -12 3 4 -13 16 -21 21 -21
13z"/>
<path d="M1870 111 c0 -6 4 -13 10 -16 6 -3 7 1 4 9 -7 18 -14 21 -14 7z"/>
<path d="M3078 63 c7 -3 16 -2 19 1 4 3 -2 6 -13 5 -11 0 -14 -3 -6 -6z"/>
<path d="M2175 40 c3 -5 8 -10 11 -10 2 0 4 5 4 10 0 6 -5 10 -11 10 -5 0 -7
-4 -4 -10z"/>
<path d="M2240 30 c8 -5 20 -10 25 -10 6 0 3 5 -5 10 -8 5 -19 10 -25 10 -5 0
-3 -5 5 -10z"/>
<path d="M2296 31 c6 -6 21 -13 34 -16 12 -2 21 -3 19 -1 -2 3 -8 5 -14 6 -5
1 -19 7 -30 12 -15 8 -17 8 -9 -1z"/>
</g>
</svg>
